<svg xmlns="http://www.w3.org/2000/svg" viewBox="0 0 100 100"><defs><style>.cls-1{fill:#ffe04a;}.cls-2{fill:#89e852;}.cls-3{fill:#ed7854;}.cls-4{fill:#3fd6ea;}.cls-5{fill:#c13e3e;}.cls-6,.cls-7{fill:#3d3d3d;}.cls-7{opacity:0.71;}</style></defs><g id="图层_2" data-name="图层 2"><g id="图层_1-2" data-name="图层 1"><path class="cls-1" d="M14.64,14.64a50,50,0,0,0,0,70.72L50,50Z"/><path class="cls-2" d="M14.64,85.36a50,50,0,0,0,70.72,0L50,50Z"/><path class="cls-3" d="M85.36,14.64a50,50,0,0,0-70.72,0L50,50Z"/><path class="cls-4" d="M85.36,14.64,50,50,85.36,85.36A50,50,0,0,0,85.36,14.64Z"/><path class="cls-5" d="M50,5A45,45,0,0,1,81.82,81.82,45,45,0,0,1,18.18,18.18,44.7,44.7,0,0,1,50,5m0-5A50,50,0,1,0,85.36,14.64,49.87,49.87,0,0,0,50,0Z"/><circle class="cls-6" cx="50" cy="50" r="5"/><circle class="cls-7" cx="50" cy="50" r="11"/></g></g></svg>