<svg width="24.000000" height="24.000000" viewBox="0 0 24 24" fill="none" xmlns="http://www.w3.org/2000/svg" xmlns:xlink="http://www.w3.org/1999/xlink">
	<desc>
			Created with Pixso.
	</desc>
	<defs/>
	<rect id="Iconly/Bold/Bookmark" width="24.000000" height="24.000000" fill="#FFFFFF" fill-opacity="0"/>
	<path id="Bookmark" d="M8.8999 2L15.0701 2C17.78 2 19.97 3.06995 20 5.79004L20 20.97C20 21.14 19.96 21.3101 19.8799 21.46C19.75 21.7 19.53 21.88 19.26 21.96C19 22.04 18.71 22 18.47 21.86L11.99 18.62L5.5 21.86C5.35107 21.939 5.17993 21.99 5.01001 21.99C4.44995 21.99 4 21.53 4 20.97L4 5.79004C4 3.06995 6.19995 2 8.8999 2ZM8.21997 9.62L15.75 9.62C16.1799 9.62 16.53 9.26904 16.53 8.82996C16.53 8.39001 16.1799 8.04004 15.75 8.04004L8.21997 8.04004C7.79004 8.04004 7.43994 8.39001 7.43994 8.82996C7.43994 9.26904 7.79004 9.62 8.21997 9.62Z" clip-rule="evenodd" fill="#FFFFFF" fill-opacity="1.000000" fill-rule="evenodd"/>
</svg>
