<svg width="24.000000" height="24.000000" viewBox="0 0 24 24" fill="none" xmlns="http://www.w3.org/2000/svg" xmlns:xlink="http://www.w3.org/1999/xlink">
	<desc>
			Created with Pixso.
	</desc>
	<defs/>
	<rect id="Iconly/Bold/Paper Negative" width="24.000000" height="24.000000" fill="#FFFFFF" fill-opacity="0"/>
	<path id="Paper Negative" d="M20.0544 9.02002C19.6287 9.02002 19.1238 9.03003 18.8169 9.03003C18.3613 9.03003 17.7673 9.02002 17.0149 9.02002C15.2029 9.01001 13.708 7.51001 13.708 5.68005L13.708 2.45996C13.708 2.20996 13.51 2 13.2524 2L7.96533 2C5.5 2 3.5 4.03003 3.5 6.51001L3.5 17.29C3.5 19.89 5.59912 22 8.17334 22L16.0444 22C18.51 22 20.5 19.99 20.5 17.51L20.5 9.46997C20.5 9.21997 20.302 9.02002 20.0544 9.02002ZM19.6101 7.56616C18.7961 7.56921 17.8367 7.56616 17.1467 7.5592C16.0515 7.5592 15.1497 6.64819 15.1497 5.54224L15.1497 2.90625C15.1497 2.47522 15.6675 2.26123 15.9634 2.57214C17.0337 3.69617 18.9041 5.66125 19.9497 6.75916C20.2388 7.06226 20.0269 7.56519 19.6101 7.56616ZM9.37134 13.73C8.96533 13.73 8.62866 13.4 8.62866 12.99C8.62866 12.5699 8.96533 12.24 9.37134 12.24L14.2625 12.24C14.6682 12.24 15.0049 12.5699 15.0049 12.99C15.0049 13.4 14.6682 13.73 14.2625 13.73L9.37134 13.73Z" clip-rule="evenodd" fill="#FFFFFF" fill-opacity="1.000000" fill-rule="evenodd"/>
</svg>
