<svg width="24.000000" height="24.000000" viewBox="0 0 24 24" fill="none" xmlns="http://www.w3.org/2000/svg" xmlns:xlink="http://www.w3.org/1999/xlink">
	<desc>
			Created with Pixso.
	</desc>
	<defs/>
	<rect id="Iconly/Bold/Star" width="24.000000" height="24.000000" fill="#FFFFFF" fill-opacity="0"/>
	<path id="Star" d="M17.91 14.32C17.65 14.57 17.54 14.93 17.59 15.29L18.48 20.21C18.56 20.62 18.38 21.04 18.03 21.29C17.69 21.54 17.24 21.57 16.86 21.37L12.43 19.06C12.28 18.97 12.11 18.93 11.93 18.92L11.66 18.92C11.57 18.94 11.48 18.97 11.39 19.01L6.96 21.34C6.74 21.45 6.5 21.48 6.25 21.45C5.66 21.33 5.27 20.77 5.36 20.17L6.25 15.25C6.31 14.9 6.19 14.53 5.93 14.28L2.32 10.78C2.02 10.48 1.92 10.04 2.05 9.65C2.19 9.25 2.53 8.96 2.94 8.9L7.91 8.17C8.29 8.14 8.62 7.91 8.79 7.57L10.98 3.08C11.04 2.98 11.1 2.88 11.18 2.81L11.27 2.74C11.32 2.68 11.37 2.64 11.43 2.61L11.54 2.57L11.71 2.5L12.13 2.5C12.51 2.53 12.84 2.76 13.01 3.1L15.23 7.57C15.39 7.89 15.7 8.12 16.06 8.17L21.03 8.9C21.45 8.96 21.8 9.25 21.94 9.65C22.07 10.05 21.96 10.49 21.65 10.78L17.91 14.32Z" fill="#FFFFFF" fill-opacity="1.000000" fill-rule="evenodd"/>
</svg>
