<svg width="24.000000" height="24.000000" viewBox="0 0 24 24" fill="none" xmlns="http://www.w3.org/2000/svg" xmlns:xlink="http://www.w3.org/1999/xlink">
	<desc>
			Created with Pixso.
	</desc>
	<defs/>
	<rect id="Iconly/Bold/Tick Square" width="24.000000" height="24.000000" fill="#FFFFFF" fill-opacity="0"/>
	<path id="Tick Square" d="M7.67017 1.99988L16.3403 1.99988C19.7302 1.99988 22.0002 4.37988 22.0002 7.91992L22.0002 16.0908C22.0002 19.6199 19.7302 21.9999 16.3403 21.9999L7.67017 21.9999C4.28027 21.9999 2.00024 19.6199 2.00024 16.0908L2.00024 7.91992C2.00024 4.37988 4.28027 1.99988 7.67017 1.99988ZM11.4302 14.9899L16.1802 10.2399C16.5203 9.8999 16.5203 9.34985 16.1802 8.99988C15.8403 8.65991 15.2803 8.65991 14.9402 8.99988L10.8103 13.1299L9.0603 11.3799C8.72021 11.0399 8.16016 11.0399 7.82031 11.3799C7.48022 11.7198 7.48022 12.2699 7.82031 12.6199L10.2002 14.9899C10.3704 15.1599 10.5903 15.2399 10.8103 15.2399C11.0403 15.2399 11.2603 15.1599 11.4302 14.9899Z" clip-rule="evenodd" fill="#FFFFFF" fill-opacity="1.000000" fill-rule="evenodd"/>
</svg>
