<svg width="32.000000" height="32.000000" viewBox="0 0 32 32" fill="none" xmlns="http://www.w3.org/2000/svg" xmlns:xlink="http://www.w3.org/1999/xlink">
	<desc>
			Created with Pixso.
	</desc>
	<defs/>
	<rect id="download" width="32.000000" height="32.000000" fill="#FFFFFF" fill-opacity="0"/>
	<rect id="Iconly/Bold/Arrow - Down Square" width="32.000000" height="32.000000" fill="#FFFFFF" fill-opacity="0"/>
	<path id="Arrow - Down Square" d="M2.6665 21.4401L2.6665 10.5468C2.6665 5.84009 5.69458 2.66675 10.2131 2.66675L21.7732 2.66675C26.2932 2.66675 29.3333 5.84009 29.3333 10.5468L29.3333 21.4401C29.3333 26.16 26.2932 29.3334 21.7732 29.3334L10.2131 29.3334C5.69458 29.3334 2.6665 26.16 2.6665 21.4401ZM17 10.5601L17 19.0267L20.28 15.7201C20.6802 15.3334 21.3066 15.3334 21.7068 15.7201C22.0935 16.1067 22.0935 16.7467 21.7068 17.1334L16.7068 22.16C16.3335 22.5334 15.6667 22.5334 15.2935 22.16L10.2935 17.1334C9.90674 16.7467 9.90674 16.1067 10.2935 15.7201C10.4934 15.5334 10.748 15.4268 11 15.4268C11.2534 15.4268 11.52 15.5334 11.7068 15.7201L15 19.0267L15 10.5601C15 10.0001 15.4402 9.56006 16 9.56006C16.5466 9.56006 17 10.0001 17 10.5601Z" clip-rule="evenodd" fill="#2ADF94" fill-opacity="1.000000" fill-rule="evenodd"/>
</svg>
