<svg width="20.696777" height="19.465454" viewBox="0 0 20.6968 19.4655" fill="none" xmlns="http://www.w3.org/2000/svg" xmlns:xlink="http://www.w3.org/1999/xlink">
	<desc>
			Created with Pixso.
	</desc>
	<defs/>
	<path id="减去顶层" d="M16.4302 7.29089C16.6036 7.86926 16.6968 8.48218 16.6968 9.11694C16.6968 12.6232 13.8545 15.4653 10.3484 15.4653C6.84229 15.4653 4 12.6232 4 9.11694C4 8.48218 4.09314 7.86926 4.2666 7.29089C4.55444 6.33069 4.44666 5.22693 3.70825 4.54907C2.8009 3.71606 1.3512 3.85413 0.858643 4.98315C0.306396 6.24927 0 7.64734 0 9.11694C0 14.8323 4.63318 19.4653 10.3484 19.4653C16.0636 19.4653 20.6968 14.8323 20.6968 9.11694C20.6968 7.64734 20.3904 6.24927 19.8381 4.98315C19.3456 3.85413 17.8958 3.71606 16.9885 4.54907C16.2501 5.22693 16.1423 6.33069 16.4302 7.29089Z" clip-rule="evenodd" fill="#2ADF94" fill-opacity="1.000000" fill-rule="evenodd"/>
	<ellipse id="椭圆 5" cx="10.348389" cy="2.516235" rx="2.516196" ry="2.516191" fill="#2ADF94" fill-opacity="0.500000"/>
</svg>
