<svg width="32.000000" height="32.000000" viewBox="0 0 32 32" fill="none" xmlns="http://www.w3.org/2000/svg" xmlns:xlink="http://www.w3.org/1999/xlink">
	<desc>
			Created with Pixso.
	</desc>
	<defs/>
	<rect id="filter" width="32.000000" height="32.000000" fill="#FFFFFF" fill-opacity="0"/>
	<path id="Filter 2" d="M26.4956 2.66663L5.50415 2.66663C3.93628 2.66663 2.6665 3.97607 2.6665 5.59106L2.6665 7.67688C2.6665 8.41931 2.9397 9.13489 3.43262 9.67651L11.4031 18.4426C11.554 18.6082 11.7642 18.7029 11.9851 18.7029L19.2473 18.7255C19.4573 18.7269 19.6604 18.6421 19.8101 18.4894L28.4834 9.71606C29.0271 9.16736 29.3333 8.41504 29.3333 7.63159L29.3333 5.5896C29.3333 3.97473 28.0632 2.66663 26.4956 2.66663ZM12.3735 21.0989L18.8462 21.1187C19.2498 21.1201 19.5764 21.458 19.5764 21.8723L19.5764 25.5138C19.5764 25.9296 19.3403 26.3057 18.9724 26.4796L13.0969 29.2385C12.9597 29.3022 12.8142 29.3334 12.6687 29.3334C12.4751 29.3334 12.2815 29.2767 12.1125 29.165C11.8174 28.9698 11.6389 28.6333 11.6389 28.2727L11.6389 21.8525C11.6389 21.4354 11.9685 21.0974 12.3735 21.0989Z" clip-rule="evenodd" fill="#2ADF94" fill-opacity="1.000000" fill-rule="evenodd"/>
</svg>
