<svg width="14.417480" height="16.961548" viewBox="0 0 14.4175 16.9615" fill="none" xmlns="http://www.w3.org/2000/svg" xmlns:xlink="http://www.w3.org/1999/xlink">
	<desc>
			Created with Pixso.
	</desc>
	<defs/>
	<path id="Location" d="M0 7.05408C0 3.15308 3.26001 0 7.20312 0C11.1575 0 14.4175 3.15308 14.4175 7.05408C14.4175 9.0199 13.7024 10.845 12.5256 12.3917C11.2275 14.098 9.62744 15.5847 7.82666 16.7516C7.41431 17.0214 7.04224 17.0416 6.58984 16.7516C4.77881 15.5847 3.17871 14.098 1.8916 12.3917C0.714111 10.845 0 9.0199 0 7.05408ZM4.8291 7.2738C4.8291 8.58069 5.89551 9.60852 7.20312 9.60852C8.51147 9.60852 9.58813 8.58069 9.58813 7.2738C9.58813 5.97717 8.51147 4.89929 7.20312 4.89929C5.89551 4.89929 4.8291 5.97717 4.8291 7.2738Z" clip-rule="evenodd" fill="#44D7B6" fill-opacity="1.000000" fill-rule="evenodd"/>
</svg>
