<svg width="32.000000" height="32.000000" viewBox="0 0 32 32" fill="none" xmlns="http://www.w3.org/2000/svg" xmlns:xlink="http://www.w3.org/1999/xlink">
	<desc>
			Created with Pixso.
	</desc>
	<defs/>
	<rect id="pen" width="32.000000" height="32.000000" fill="#FFFFFF" fill-opacity="0"/>
	<path id="Edit" d="M12.502 26.704L24.217 11.5541C24.8538 10.7371 25.0801 9.79248 24.8679 8.83081C24.6838 7.95642 24.1462 7.12512 23.3398 6.49451L21.373 4.93225C19.6611 3.57056 17.5388 3.71387 16.322 5.27625L15.0061 6.98328C14.8364 7.19678 14.8789 7.51208 15.0911 7.68408C15.0911 7.68408 18.416 10.3501 18.4868 10.4073C18.7131 10.6224 18.8831 10.9091 18.9253 11.2531C18.9961 11.9268 18.5293 12.5574 17.8359 12.6433C17.5105 12.6864 17.1992 12.5861 16.9729 12.3997L13.478 9.61914C13.3083 9.49158 13.0537 9.5188 12.9121 9.6908L4.60693 20.4404C4.06909 21.1141 3.88525 21.9884 4.06909 22.8341L5.13037 27.4349C5.18701 27.6786 5.39917 27.8506 5.65381 27.8506L10.323 27.7933C11.1719 27.7789 11.9641 27.392 12.502 26.704ZM19.0398 25.2711L26.6531 25.2711C27.396 25.2711 28.0002 25.8831 28.0002 26.6356C28.0002 27.3895 27.396 28.0001 26.6531 28.0001L19.0398 28.0001C18.2969 28.0001 17.6926 27.3895 17.6926 26.6356C17.6926 25.8831 18.2969 25.2711 19.0398 25.2711Z" clip-rule="evenodd" fill="#2ADF94" fill-opacity="1.000000" fill-rule="evenodd"/>
</svg>
